# xmcd CD database file
#
# Track frame offsets:
#	150
#	13017
#	20685
#	34537
#	45805
#	55912
#	68082
#	78385
#	90435
#	101640
#	114232
#	126680
#	139235
#	149812
#	159952
#
# Disc length: 2289 seconds
#
# Revision: 0
# Processed by: cddbd v1.4PL0 Copyright (c) Steve Scherf et al.
# Submitted via: Feurio! 1.64 - http://www.feurio.com
#
DISCID=c508ef0f
DTITLE=Various Artist - Come In Stranger
DYEAR=1995
DGENRE=Country
TTITLE0=Johnny Horton - Done Rovin' -1959
TTITLE1=Johnny Cash - Come In Stranger -1958
TTITLE2=Claude King - Whispering Pines -1959
TTITLE3=Johnny Horton - All For The Love Of A Girl -1953
TTITLE4=Johnny Cash - Get Rhytm -1956
TTITLE5=Claude King - Battle Of New Orleanes -1969
TTITLE6=Johnny Horton - In My Home In Shelby Country -1959
TTITLE7=Johnny Cash - You're The Nearest Thing To Heaven -1958
TTITLE8=Claude King - Ole Slewfoot -1969
TTITLE9=Johnny Horton - Words -1959
TTITLE10=Johnny Cash - Give My Love To Rose -1957
TTITLE11=Claude King - North To Alaska -1969
TTITLE12=Johnny Horton - Plaid And Calico -1959
TTITLE13=Johnny Cash - Goodbye Little Darling Goodbye -1959
TTITLE14=Claude King - When It's Springtime In Alaska -1969
EXTD=The Bear-(20 Bit Master)-1995
EXTT0=
EXTT1=
EXTT2=
EXTT3=
EXTT4=
EXTT5=
EXTT6=
EXTT7=
EXTT8=
EXTT9=
EXTT10=
EXTT11=
EXTT12=
EXTT13=
EXTT14=
PLAYORDER=
